<?xml version="1.0" encoding="UTF-8"?>
<svg width="87px" height="86px" viewBox="0 0 87 86" version="1.1" xmlns="http://www.w3.org/2000/svg" xmlns:xlink="http://www.w3.org/1999/xlink">
    <title>ic_联合行动</title>
    <defs>
        <linearGradient x1="84.6087811%" y1="7.90001444%" x2="13.0543157%" y2="87.9433956%" id="linearGradient-1">
            <stop stop-color="#00DDA5" offset="0%"></stop>
            <stop stop-color="#07D28E" offset="100%"></stop>
        </linearGradient>
    </defs>
    <g id="电脑端2.0" stroke="none" stroke-width="1" fill="none" fill-rule="evenodd">
        <g id="WorkUP2" transform="translate(-1346.000000, -6560.000000)">
            <g id="ic_联合行动" transform="translate(1346.787879, 6560.000000)">
                <path d="M43,0 C57.0850993,0.181615301 68.811579,2.82257142 75.9025065,10.0974935 C83.1782217,17.188421 85.8183847,28.9149007 86,43 C85.8175916,57.0850993 83.1782217,68.811579 75.9025065,75.9025065 C68.811579,83.1782217 57.0850993,85.8183847 43,86 C28.9149007,85.8183847 17.188421,83.1782217 10.0982866,75.9025065 C2.82257142,68.811579 0.182408381,57.0850993 0,43 C0.182408381,28.9156938 2.82257142,17.188421 10.0982866,10.0974935 C17.188421,2.82257142 28.9149007,0.181615301 43,0" id="超椭圆" fill="url(#linearGradient-1)"></path>
                <g id="8.视频会议" transform="translate(22.217027, 23.472267)" fill="#FFFFFF" fill-rule="nonzero">
                    <path d="M14.3329726,11.4652333 L14.3329726,10.0319 C14.3329726,9.24029186 14.9746978,8.59856667 15.766306,8.59856667 L40.8496393,8.59856667 C41.2297829,8.59856667 41.5943569,8.74957814 41.863159,9.01838028 C42.1319612,9.28718242 42.2829726,9.65175636 42.2829726,10.0319 L42.2829726,30.0985667 C42.2829726,32.4732417 40.3576476,34.3985667 37.9829726,34.3985667 L18.6329726,34.3985667 C16.2582976,34.3985667 14.3329726,32.4732417 14.3329726,30.0985667 L14.3329726,19.237125 L17.1996393,18.7429833 L17.1996393,30.0985667 C17.1996393,30.8901748 17.8413645,31.5319 18.6329726,31.5319 L37.9829726,31.5319 C38.7745808,31.5319 39.416306,30.8901748 39.416306,30.0985667 L39.416306,11.4652333 L14.3329726,11.4652333 Z" id="路径"></path>
                    <path d="M33.2651651,21.6594583 C33.266734,22.0363485 33.0640519,22.3845284 32.7355393,22.5692667 L24.8593726,27.0591833 C24.5352609,27.2431018 24.1379449,27.2414333 23.8153893,27.0547993 C23.4928337,26.8681652 23.2933796,26.5245361 23.291306,26.1518833 L23.291306,17.160225 C23.2960283,16.7884042 23.497073,16.4468177 23.8198528,16.2621932 C24.1426326,16.0775688 24.5389914,16.0774509 24.861881,16.2618833 L32.730881,20.74965 C33.0603328,20.9340044 33.2645133,21.2819335 33.2647976,21.6594583 L33.2651651,21.6594583 Z M3.34539763,12.898399 C2.4279017,12.8893896 1.54687298,13.2572945 0.908372635,13.9162333 C0.290247635,14.55765 -0.0240106984,15.3545833 0.00143096824,16.2102833 L0.00644763491,16.3220833 L0.510264302,25.0457083 C0.582289302,26.23 1.4895893,27.1949917 2.6699393,27.355525 L2.7570143,27.3659167 L3.36152263,27.4271917 L4.06457263,38.5487833 C4.1265643,39.4130833 4.83427263,40.09105 5.7035893,40.1301083 L5.7831393,40.1319 L9.0382393,40.1319 C9.92153097,40.1319 10.662206,39.4725667 10.7499976,38.6329917 L10.7560893,38.5563083 L12.0281726,17.8217083 L21.232681,16.2350083 L21.2806976,16.2332167 C22.1686476,16.20025 22.877431,15.5022167 22.925806,14.63505 L22.9283143,14.5580083 L22.9329726,14.5580083 L22.931181,14.4906417 C22.8910476,13.6435417 22.1729476,12.939775 21.2964643,12.9003583 L21.218706,12.898399 L3.3450393,12.898399 L3.34539763,12.898399 Z" id="形状"></path>
                    <path d="M8.33913097,10.6367667 C6.43905558,10.6367667 4.68331351,9.62308858 3.7332758,7.97757503 C2.7832381,6.33206149 2.7832381,4.30470518 3.7332758,2.65919163 C4.68331351,1.01367809 6.43905558,0 8.33913097,0 C11.2763893,0 13.6567976,2.381125 13.6567976,5.31838333 C13.6567976,8.25528333 11.2763893,10.6364083 8.33913097,10.6367667 Z M8.33913097,9.052575 C10.4014681,9.052575 12.0733226,7.38072044 12.0733226,5.31838333 C12.0733226,3.25604622 10.4014681,1.58419167 8.33913097,1.58419167 C6.27692263,1.58419167 4.60529763,3.256175 4.60529763,5.318025 C4.60529763,7.38059167 6.27692263,9.05221667 8.33913097,9.052575 Z" id="形状"></path>
                </g>
            </g>
        </g>
    </g>
</svg>